<svg xmlns="http://www.w3.org/2000/svg" width="1500" height="820" viewBox="0 0 1500 820" role="img" aria-labelledby="title desc">
  <title id="title">Catalog Product Flow</title>
  <desc id="desc">Catalog product flow diagram with Redis cache, MongoDB read model, Elasticsearch search projection, RabbitMQ, and Postgres write model.</desc>
  <defs>
    <filter id="shadow" x="-20%" y="-20%" width="140%" height="140%">
      <feDropShadow dx="0" dy="7" stdDeviation="7" flood-color="#19324d" flood-opacity="0.12"/>
    </filter>
    <marker id="arrow-blue" markerWidth="12" markerHeight="12" refX="10" refY="6" orient="auto">
      <path d="M2,2 L10,6 L2,10 Z" fill="#2563eb"/>
    </marker>
    <marker id="arrow-orange" markerWidth="12" markerHeight="12" refX="10" refY="6" orient="auto">
      <path d="M2,2 L10,6 L2,10 Z" fill="#f97316"/>
    </marker>
    <marker id="arrow-red" markerWidth="12" markerHeight="12" refX="10" refY="6" orient="auto">
      <path d="M2,2 L10,6 L2,10 Z" fill="#dc2626"/>
    </marker>
    <style>
      .title { font: 700 30px Inter, Arial, sans-serif; fill: #0f172a; }
      .subtitle { font: 500 15px Inter, Arial, sans-serif; fill: #475569; }
      .label { font: 700 15px Inter, Arial, sans-serif; fill: #0f172a; }
      .step { font: 600 13px Inter, Arial, sans-serif; fill: #334155; }
      .tiny { font: 600 12px Inter, Arial, sans-serif; fill: #64748b; }
      .lane { stroke: #cbd5e1; stroke-width: 2; stroke-dasharray: 7 7; }
      .box { filter: url(#shadow); stroke-width: 2; }
      .blue { fill: none; stroke: #2563eb; stroke-width: 3; marker-end: url(#arrow-blue); }
      .orange { fill: none; stroke: #f97316; stroke-width: 3; marker-end: url(#arrow-orange); }
      .red { fill: none; stroke: #dc2626; stroke-width: 3; stroke-dasharray: 6 6; marker-end: url(#arrow-red); }
    </style>
  </defs>

  <rect width="1500" height="820" fill="#f8fbff"/>
  <text x="750" y="52" text-anchor="middle" class="title">Catalog Product Flow</text>
  <text x="750" y="80" text-anchor="middle" class="subtitle">Publish ProductCreated to independent MongoDB and Elasticsearch projections; cache regular reads in Redis.</text>

  <rect x="50" y="120" width="1400" height="640" rx="28" fill="#ffffff" stroke="#dbeafe" stroke-width="2"/>

  <g>
    <rect x="80" y="145" width="135" height="58" rx="14" fill="#dbeafe" stroke="#60a5fa" class="box"/>
    <text x="147" y="181" text-anchor="middle" class="label">Client</text>
    <line x1="147" y1="215" x2="147" y2="720" class="lane"/>
  </g>
  <g>
    <rect x="255" y="145" width="155" height="58" rx="14" fill="#ede9fe" stroke="#8b5cf6" class="box"/>
    <text x="332" y="181" text-anchor="middle" class="label">API Gateway</text>
    <line x1="332" y1="215" x2="332" y2="720" class="lane"/>
  </g>
  <g>
    <rect x="455" y="145" width="165" height="58" rx="14" fill="#dcfce7" stroke="#22c55e" class="box"/>
    <text x="537" y="181" text-anchor="middle" class="label">Catalog Write</text>
    <line x1="537" y1="215" x2="537" y2="720" class="lane"/>
  </g>
  <g>
    <rect x="665" y="145" width="135" height="58" rx="14" fill="#ecfdf5" stroke="#10b981" class="box"/>
    <text x="732" y="181" text-anchor="middle" class="label">Postgres</text>
    <line x1="732" y1="215" x2="732" y2="720" class="lane"/>
  </g>
  <g>
    <rect x="845" y="145" width="140" height="58" rx="14" fill="#fff7ed" stroke="#f97316" class="box"/>
    <text x="915" y="181" text-anchor="middle" class="label">RabbitMQ</text>
    <line x1="915" y1="215" x2="915" y2="720" class="lane"/>
  </g>
  <g>
    <rect x="1030" y="145" width="160" height="58" rx="14" fill="#e0f2fe" stroke="#0ea5e9" class="box"/>
    <text x="1110" y="181" text-anchor="middle" class="label">Catalog Read</text>
    <line x1="1110" y1="215" x2="1110" y2="720" class="lane"/>
  </g>
  <g>
    <rect x="1230" y="132" width="150" height="46" rx="13" fill="#bbf7d0" stroke="#22c55e" class="box"/>
    <text x="1305" y="162" text-anchor="middle" class="label">MongoDB</text>
    <line x1="1305" y1="215" x2="1305" y2="720" class="lane"/>
  </g>
  <g>
    <polygon points="1250,205 1305,183 1360,205 1305,227" fill="#ef4444" stroke="#991b1b" stroke-width="2" filter="url(#shadow)"/>
    <polygon points="1250,225 1305,203 1360,225 1305,247" fill="#dc2626" stroke="#991b1b" stroke-width="2"/>
    <polygon points="1250,245 1305,223 1360,245 1305,267" fill="#b91c1c" stroke="#991b1b" stroke-width="2"/>
    <text x="1305" y="292" text-anchor="middle" class="label">Redis</text>
  </g>
  <g>
    <rect x="1230" y="680" width="150" height="52" rx="14" fill="#ede9fe" stroke="#7c3aed" class="box"/>
    <circle cx="1255" cy="706" r="14" fill="#fbbf24"/>
    <path d="M1255 692 A14 14 0 0 1 1268 711 L1253 711 Z" fill="#22d3ee"/>
    <path d="M1253 711 L1264 717 A14 14 0 0 1 1244 717 Z" fill="#111827"/>
    <text x="1310" y="711" text-anchor="middle" class="label">Elasticsearch</text>
  </g>

  <path d="M147 330 L332 330" class="blue"/>
  <text x="170" y="321" class="step">1. Create product</text>
  <path d="M332 370 L537 370" class="blue"/>
  <text x="360" y="361" class="step">2. gRPC CreateProduct</text>
  <path d="M537 410 L732 410" class="blue"/>
  <text x="560" y="401" class="step">3. Save product + outbox</text>
  <path d="M732 450 L537 450" class="blue"/>
  <path d="M537 490 L332 490" class="blue"/>
  <path d="M332 530 L147 530" class="blue"/>
  <text x="170" y="521" class="step">4. HTTP response</text>

  <path d="M537 585 L732 585" class="orange"/>
  <text x="560" y="576" class="step">5. Outbox worker reads event</text>
  <path d="M732 625 L915 625" class="orange"/>
  <text x="755" y="616" class="step">6. Publish ProductCreated</text>
  <path d="M915 665 L1110 665" class="orange"/>
  <text x="940" y="656" class="step">7. Mongo projection queue</text>
  <path d="M915 700 L1110 700" class="orange"/>
  <text x="940" y="691" class="step">7b. Search projection queue</text>
  <path d="M1110 610 L1305 610" class="orange"/>
  <text x="1140" y="601" class="step">8. Upsert Mongo projection</text>
  <path d="M1110 560 C1175 520, 1235 505, 1295 292" class="red"/>
  <text x="1138" y="533" class="step">9. Delete Redis products cache</text>
  <path d="M1110 700 L1230 706" class="orange"/>
  <text x="1118" y="727" class="tiny">10. Index by product ID</text>

  <path d="M147 260 L332 260" class="blue"/>
  <text x="170" y="251" class="step">Read: Get products</text>
  <path d="M332 285 L1110 285" class="blue"/>
  <path d="M1110 320 C1160 285, 1220 285, 1295 292" class="red"/>
  <text x="1138" y="308" class="step">Redis cache hit / miss</text>
  <path d="M1110 350 C1185 350, 1240 340, 1305 330" class="blue"/>
  <text x="1140" y="373" class="step">Mongo fallback on miss</text>

  <text x="1125" y="232" class="tiny" fill="#2563eb">query side</text>
  <text x="1235" y="317" class="tiny" fill="#dc2626">cache-aside</text>
</svg>
